<?xml version="1.0" standalone="no"?>
<!DOCTYPE svg PUBLIC "-//W3C//DTD SVG 20010904//EN"
 "http://www.w3.org/TR/2001/REC-SVG-20010904/DTD/svg10.dtd">
<svg version="1.0" xmlns="http://www.w3.org/2000/svg"
 width="1280.000000pt" height="672.000000pt" viewBox="0 0 1280.000000 672.000000"
 preserveAspectRatio="xMidYMid meet">
<g transform="translate(0.000000,672.000000) scale(0.100000,-0.100000)"
fill="#000000" stroke="none">
<path d="M924 6684 c4 -21 91 -470 192 -997 101 -527 184 -968 184 -979 0 -18
-4 -20 -37 -14 -174 30 -323 25 -351 -12 -21 -28 -52 -141 -52 -192 0 -74 25
-129 87 -191 30 -32 54 -62 51 -69 -3 -10 -323 -141 -847 -347 -106 -41 -139
-58 -125 -63 10 -4 123 -22 249 -40 l230 -33 467 81 c257 45 474 82 482 82 8
0 68 -35 133 -79 237 -157 1099 -663 1215 -712 112 -48 391 -149 808 -294
1225 -424 1557 -545 1665 -605 28 -15 79 -38 115 -50 95 -34 97 -37 58 -78
-44 -45 -291 -260 -400 -348 -80 -64 -204 -128 -1582 -817 -1071 -535 -1496
-752 -1496 -764 0 -9 11 -35 25 -59 18 -31 39 -50 80 -70 83 -40 123 -41 250
-4 285 81 1115 364 2269 771 l649 229 226 -119 c486 -256 697 -344 1128 -471
157 -46 178 -44 248 27 64 65 149 240 176 364 38 170 8 331 -69 384 -85 58
-259 94 -587 120 -104 9 -194 20 -198 24 -5 5 0 14 12 20 51 28 767 331 781
331 8 0 69 -15 135 -32 l120 -33 426 -1 c234 -1 443 -4 465 -8 86 -15 386 -82
704 -156 311 -73 625 -150 1745 -424 787 -193 801 -196 984 -207 206 -12 596
3 815 31 211 27 326 66 379 130 29 34 32 42 48 130 23 132 24 124 -20 214 -37
77 -52 95 -181 218 -117 110 -157 156 -232 266 -102 149 -201 261 -298 334
-120 92 -426 227 -844 372 -208 73 -234 79 -1761 416 -852 189 -1556 348
-1563 355 -10 9 -16 79 -22 276 -13 371 -28 815 -41 1224 -6 193 -14 353 -17
357 -18 18 -388 206 -394 200 -4 -4 -42 -138 -83 -297 -159 -603 -270 -987
-388 -1340 -52 -154 -67 -191 -83 -193 -21 -3 -4130 903 -4153 916 -8 4 -70
103 -139 220 l-124 212 26 178 c15 97 29 184 32 193 4 13 -23 28 -123 68 -70
28 -133 51 -139 51 -6 0 -16 -12 -23 -26 -6 -14 -16 -24 -23 -22 -6 2 -179
292 -385 643 -206 352 -380 645 -386 652 -7 7 -111 28 -232 47 -121 18 -231
37 -244 41 -23 8 -24 7 -17 -31z"/>
</g>
</svg>
